<?xml version="1.0" encoding="utf-8"?>
<!DOCTYPE svg
  PUBLIC '-//W3C//DTD SVG 1.0//EN'
  'http://www.w3.org/TR/2001/REC-SVG-20010904/DTD/svg10.dtd'>
<svg fill-rule="evenodd" height="595.2755905511812" preserveAspectRatio="xMinYMin meet" version="1.0" viewBox="0 0 841 595" width="841.8897637795277" xmlns="http://www.w3.org/2000/svg" xmlns:xlink="http://www.w3.org/1999/xlink">
	<title>...</title>
	<desc>...</desc>
	<clipPath id="clip">
		<rect height="595.2755905511812" width="841.8897637795277" x="0" y="0"/>
	</clipPath>
	<g id="group" style="clip-path: url(#clip)" transform="scale(1,-1) translate(0,-595)">
		<g transform="">
			<circle cx="420.9448818897638" cy="297.6377952755905" r="200.9055118110236" style="stroke: rgb(96%,96%,96%); stroke-linecap: butt; stroke-width: 20.09055118110237; fill: none;"/>
			<circle cx="420.9448818897638" cy="297.6377952755905" r="254.48031496062987" style="stroke: rgb(96%,96%,96%); stroke-linecap: butt; stroke-width: 20.09055118110234; fill: none;"/>
			<path d="M 599.069722 390.560160 L 597.787205 392.978330 L 596.471860 395.378803 L 595.123934 397.761132 L 593.743675 400.124876 L 592.331341 402.469596 L 590.887193 404.794856 L 589.411499 407.100225 L 587.904534 409.385275 L 586.366576 411.649583 L 584.797913 413.892726 L 583.198834 416.114290 L 581.569636 418.313861 L 579.910623 420.491032 L 578.222101 422.645399 L 576.504385 424.776560 L 574.757793 426.884122 L 572.982650 428.967692 L 571.179284 431.026884 L 569.348031 433.061316 L 567.489231 435.070609 L 565.603228 437.054392 L 563.690374 439.012295 L 561.751022 440.943956 L 559.785532 442.849015 L 557.794271 444.727120 L 555.777607 446.577921 L 553.735914 448.401075 L 551.669572 450.196243 L 549.578964 451.963093 L 547.464479 453.701296 L 545.326508 455.410530 L 543.165449 457.090477 L 540.981702 458.740826 L 538.775674 460.361270 L 536.547773 461.951508 L 534.298414 463.511245 L 532.028013 465.040193 L 529.736992 466.538066 L 527.425777 468.004587 L 525.094797 469.439483 L 522.744483 470.842489 L 520.375273 472.213343 L 517.987606 473.551792 L 515.581925 474.857587 L 513.158678 476.130486 L 510.718313 477.370251 L 508.261284 478.576654 L 505.788047 479.749470 L 503.299061 480.888481 L 500.794787 481.993477 L 498.275692 483.064251 L 495.742242 484.100605 L 493.194908 485.102348 L 490.634162 486.069292 L 488.060480 487.001258 L 485.474340 487.898074 L 482.876222 488.759573 L 485.972789 498.315662 L 488.700813 497.411088 L 491.416260 496.469431 L 494.118626 495.490867 L 496.807409 494.475575 L 499.482110 493.423746 L 502.142232 492.335574 L 504.787283 491.211261 L 507.416770 490.051016 L 510.030205 488.855054 L 512.627104 487.623597 L 515.206984 486.356874 L 517.769368 485.055120 L 520.313777 483.718577 L 522.839742 482.347492 L 525.346792 480.942121 L 527.834463 479.502724 L 530.302292 478.029568 L 532.749822 476.522926 L 535.176598 474.983079 L 537.582170 473.410313 L 539.966090 471.804918 L 542.327918 470.167194 L 544.667214 468.497443 L 546.983543 466.795977 L 549.276477 465.063111 L 551.545589 463.299167 L 553.790458 461.504471 L 556.010668 459.679358 L 558.205806 457.824166 L 560.375466 455.939239 L 562.519243 454.024927 L 564.636740 452.081586 L 566.727565 450.109576 L 568.791329 448.109264 L 570.827648 446.081020 L 572.836146 444.025222 L 574.816449 441.942250 L 576.768189 439.832492 L 578.691004 437.696339 L 580.584538 435.534187 L 582.448439 433.346438 L 584.282360 431.133499 L 586.085962 428.895779 L 587.858910 426.633694 L 589.600874 424.347665 L 591.311531 422.038115 L 592.990564 419.705473 L 594.637661 417.350172 L 596.252516 414.972649 L 597.834830 412.573347 L 599.384308 410.152709 L 600.900664 407.711186 L 602.383615 405.249230 L 603.832886 402.767299 L 605.248209 400.265853 L 606.629321 397.745357 L 607.975964 395.206278 Z " style="stroke: rgb(100%,0%,0%); stroke-linecap: butt; stroke-width: 1; fill: rgb(100%,0%,0%);"/>
			<path d="M 550.452975 144.045222 L 553.116201 146.330931 L 555.739093 148.662813 L 558.320852 151.040157 L 560.860688 153.462236 L 563.357828 155.928313 L 565.811509 158.437633 L 568.220982 160.989432 L 570.585512 163.582931 L 572.904377 166.217339 L 575.176871 168.891850 L 577.402298 171.605650 L 579.579981 174.357911 L 581.709255 177.147791 L 583.789469 179.974441 L 585.819990 182.836996 L 587.800197 185.734585 L 589.729486 188.666322 L 591.607269 191.631313 L 593.432972 194.628653 L 595.206038 197.657427 L 596.925927 200.716712 L 598.592113 203.805573 L 600.204088 206.923068 L 601.761360 210.068246 L 603.263453 213.240146 L 604.709911 216.437802 L 606.100290 219.660236 L 607.434166 222.906467 L 608.711134 226.175502 L 609.930802 229.466345 L 611.092799 232.777992 L 612.196771 236.109431 L 613.242380 239.459646 L 614.229306 242.827615 L 615.157250 246.212310 L 616.025928 249.612697 L 616.835075 253.027741 L 617.584443 256.456397 L 618.273805 259.897621 L 618.902950 263.350361 L 619.471685 266.813565 L 619.979837 270.286175 L 620.427252 273.767131 L 620.813793 277.255372 L 621.139341 280.749833 L 621.403797 284.249448 L 621.607082 287.753148 L 621.749132 291.259865 L 621.829904 294.768527 L 621.849373 298.278066 L 621.807535 301.787409 L 621.704401 305.295486 L 621.540003 308.801225 L 621.314391 312.303559 L 621.027634 315.801417 L 620.679819 319.293732 L 620.271053 322.779438 L 619.801460 326.257472 L 619.271184 329.726773 L 618.680387 333.186281 L 618.029248 336.634941 L 617.317966 340.071701 L 616.546760 343.495511 L 615.715863 346.905328 L 614.825529 350.300110 L 613.876030 353.678822 L 612.867657 357.040432 L 611.800716 360.383914 L 610.675533 363.708249 L 609.492451 367.012422 L 608.251832 370.295424 L 606.954055 373.556254 L 605.599514 376.793916 L 604.188624 380.007424 L 602.721815 383.195795 L 601.199535 386.358057 L 599.622248 389.493245 L 597.990435 392.600402 L 596.304595 395.678581 L 594.565242 398.726841 L 592.772907 401.744253 L 590.928136 404.729895 L 589.031494 407.682857 L 587.083557 410.602238 L 585.084922 413.487146 L 583.036197 416.336701 L 580.938008 419.150034 L 578.790996 421.926286 L 576.595815 424.664611 L 574.353135 427.364171 L 572.063641 430.024144 L 569.728031 432.643718 L 567.347019 435.222093 L 564.921330 437.758483 L 562.451705 440.252113 L 559.938898 442.702223 L 557.383675 445.108065 L 554.786816 447.468904 L 552.149114 449.784021 L 549.471374 452.052709 L 546.754412 454.274275 L 553.044888 462.106099 L 555.897698 459.773455 L 558.709326 457.391333 L 561.478913 454.960460 L 564.205615 452.481578 L 566.888599 449.955444 L 569.527046 447.382829 L 572.120152 444.764517 L 574.667126 442.101308 L 577.167189 439.394014 L 579.619579 436.643461 L 582.023548 433.850490 L 584.378361 431.015951 L 586.683301 428.140711 L 588.937664 425.225646 L 591.140763 422.271646 L 593.291924 419.279613 L 595.390491 416.250460 L 597.435824 413.185110 L 599.427299 410.084500 L 601.364308 406.949576 L 603.246260 403.781293 L 605.072581 400.580620 L 606.842713 397.348533 L 608.556116 394.086017 L 610.212267 390.794070 L 611.810662 387.473695 L 613.350811 384.125905 L 614.832246 380.751722 L 616.254513 377.352177 L 617.617180 373.928305 L 618.919830 370.481153 L 620.162065 367.011772 L 621.343507 363.521220 L 622.463795 360.010563 L 623.522588 356.480873 L 624.519561 352.933226 L 625.454412 349.368705 L 626.326853 345.788397 L 627.136621 342.193396 L 627.883466 338.584798 L 628.567162 334.963705 L 629.187499 331.331222 L 629.744289 327.688456 L 630.237362 324.036520 L 630.666566 320.376528 L 631.031771 316.709598 L 631.332866 313.036847 L 631.569759 309.359397 L 631.742377 305.678370 L 631.850668 301.994890 L 631.894598 298.310079 L 631.874155 294.625064 L 631.789344 290.940968 L 631.640192 287.258916 L 631.426743 283.580031 L 631.149064 279.905435 L 630.807238 276.236251 L 630.401371 272.573598 L 629.931585 268.918594 L 629.398025 265.272353 L 628.800853 261.635990 L 628.140251 258.010612 L 627.416421 254.397327 L 626.629585 250.797238 L 625.779981 247.211443 L 624.867869 243.641035 L 623.893528 240.087106 L 622.857254 236.550738 L 621.759365 233.033013 L 620.600195 229.535002 L 619.380098 226.057773 L 618.099446 222.602388 L 616.758631 219.169900 L 615.358060 215.761359 L 613.898162 212.377802 L 612.379382 209.020264 L 610.802184 205.689768 L 609.167048 202.387332 L 607.474475 199.113962 L 605.724979 195.870657 L 603.919096 192.658409 L 602.057376 189.478196 L 600.140388 186.330989 L 598.168716 183.217748 L 596.142963 180.139424 L 594.063745 177.096956 L 591.931699 174.091273 L 589.747473 171.123291 L 587.511736 168.193916 L 585.225169 165.304043 L 582.888470 162.454553 L 580.502352 159.646316 L 578.067543 156.880188 L 575.584787 154.157014 L 573.054840 151.477625 L 570.478475 148.842839 L 567.856479 146.253458 L 565.189650 143.710275 L 562.478804 141.214064 L 559.724767 138.765588 L 556.928380 136.365593 Z " style="stroke: rgb(0%,50%,0%); stroke-linecap: butt; stroke-width: 1; fill: rgb(0%,50%,0%);"/>
			<path d="M 381.149768 110.972376 L 384.166538 110.354632 L 387.192881 109.785640 L 390.228011 109.265548 L 393.271137 108.794491 L 396.321466 108.372592 L 399.378206 107.999961 L 402.440559 107.676695 L 405.507729 107.402877 L 408.578918 107.178580 L 411.653325 107.003861 L 414.730151 106.878767 L 417.808595 106.803329 L 420.887856 106.777568 L 423.967131 106.801489 L 427.045620 106.875087 L 430.122520 106.998343 L 433.197032 107.171224 L 436.268354 107.393686 L 439.335687 107.665671 L 442.398233 107.987107 L 445.455194 108.357912 L 448.505775 108.777988 L 451.549182 109.247226 L 454.584622 109.765504 L 457.611305 110.332688 L 460.628444 110.948629 L 463.635252 111.613168 L 466.630948 112.326130 L 469.614751 113.087332 L 472.585885 113.896574 L 475.543576 114.753645 L 478.487055 115.658324 L 481.415554 116.610373 L 484.328313 117.609546 L 487.224572 118.655583 L 490.103578 119.748210 L 492.964581 120.887144 L 495.806836 122.072088 L 498.629604 123.302734 L 501.432150 124.578761 L 504.213744 125.899837 L 506.973663 127.265618 L 509.711187 128.675750 L 512.425604 130.129863 L 515.116208 131.627581 L 517.782298 133.168514 L 520.423180 134.752259 L 523.038167 136.378405 L 525.626578 138.046529 L 528.187740 139.756196 L 530.720984 141.506962 L 533.225653 143.298370 L 535.701094 145.129954 L 538.146663 147.001238 L 540.561722 148.911734 L 542.945644 150.860945 L 545.297808 152.848364 L 551.842699 145.227868 L 549.366737 143.135848 L 546.857345 141.084047 L 544.315177 139.072998 L 541.740895 137.103226 L 539.135167 135.175242 L 536.498674 133.289550 L 533.832100 131.446639 L 531.136141 129.646989 L 528.411498 127.891069 L 525.658880 126.179336 L 522.879004 124.512236 L 520.072594 122.890202 L 517.240379 121.313656 L 514.383098 119.783010 L 511.501493 118.298662 L 508.596316 116.860997 L 505.668322 115.470390 L 502.718274 114.127204 L 499.746939 112.831788 L 496.755091 111.584478 L 493.743509 110.385600 L 490.712977 109.235466 L 487.664283 108.134375 L 484.598221 107.082614 L 481.515590 106.080457 L 478.417192 105.128164 L 475.303833 104.225983 L 472.176323 103.374149 L 469.035478 102.572885 L 465.882114 101.822398 L 462.717052 101.122884 L 459.541117 100.474525 L 456.355135 99.877489 L 453.159935 99.331933 L 449.956349 98.837998 L 446.745211 98.395812 L 443.527357 98.005492 L 440.303624 97.667138 L 437.074852 97.380839 L 433.841882 97.146668 L 430.605554 96.964688 L 427.366711 96.834945 L 424.126197 96.757473 L 420.884855 96.732292 L 417.643528 96.759410 L 414.403060 96.838818 L 411.164296 96.970496 L 407.928077 97.154411 L 404.695247 97.390513 L 401.466647 97.678742 L 398.243117 98.019022 L 395.025497 98.411265 L 391.814624 98.855370 L 388.611334 99.351219 L 385.416460 99.898684 L 382.230835 100.497624 L 379.055288 101.147881 Z " style="stroke: rgb(100%,0%,0%); stroke-linecap: butt; stroke-width: 1; fill: rgb(100%,0%,0%);"/>
			<path d="M 321.817220 134.538634 L 324.481185 132.949044 L 327.170634 131.402961 L 329.884856 129.900794 L 332.623135 128.442941 L 335.384747 127.029785 L 338.168962 125.661702 L 340.975045 124.339051 L 343.802254 123.062182 L 346.649844 121.831433 L 349.517060 120.647129 L 352.403147 119.509582 L 355.307341 118.419094 L 358.228875 117.375952 L 361.166977 116.380432 L 364.120872 115.432796 L 367.089779 114.533296 L 370.072913 113.682169 L 373.069487 112.879639 L 376.078708 112.125919 L 379.099782 111.421208 L 382.131911 110.765692 L 385.174294 110.159544 L 388.226127 109.602924 L 391.286603 109.095980 L 394.354914 108.638845 L 397.430250 108.231639 L 400.511798 107.874472 L 403.598744 107.567436 L 406.690273 107.310614 L 409.785568 107.104073 L 412.883810 106.947867 L 415.984182 106.842037 L 419.085865 106.786613 L 422.188039 106.781608 L 425.289884 106.827023 L 428.390582 106.922847 L 431.489312 107.069055 L 434.585257 107.265607 L 437.677599 107.512453 L 440.765519 107.809525 L 443.848204 108.156747 L 446.924838 108.554026 L 449.994609 109.001258 L 453.056705 109.498324 L 456.110318 110.045093 L 459.154640 110.641421 L 462.188869 111.287149 L 465.212201 111.982108 L 468.223839 112.726114 L 471.222987 113.518970 L 474.208852 114.360466 L 477.180646 115.250382 L 480.137583 116.188480 L 483.078883 117.174515 L 486.003768 118.208224 L 488.911466 119.289335 L 491.801208 120.417563 L 495.530488 111.090182 L 492.488654 109.902574 L 489.427920 108.764562 L 486.349093 107.676447 L 483.252988 106.638516 L 480.140423 105.651044 L 477.012219 104.714291 L 473.869203 103.828505 L 470.712205 102.993920 L 467.542060 102.210756 L 464.359605 101.479220 L 461.165680 100.799506 L 457.961130 100.171793 L 454.746801 99.596247 L 451.523542 99.073019 L 448.292204 98.602249 L 445.053642 98.184060 L 441.808711 97.818564 L 438.558268 97.505856 L 435.303172 97.246019 L 432.044282 97.039121 L 428.782461 96.885219 L 425.518569 96.784351 L 422.253468 96.736545 L 418.988022 96.741814 L 415.723093 96.800155 L 412.459543 96.911555 L 409.198235 97.075982 L 405.940031 97.293394 L 402.685790 97.563733 L 399.436373 97.886929 L 396.192638 98.262894 L 392.955442 98.691531 L 389.725641 99.172726 L 386.504087 99.706352 L 383.291631 100.292267 L 380.089123 100.930318 L 376.897409 101.620335 L 373.717331 102.362136 L 370.549729 103.155526 L 367.395441 104.000294 L 364.255300 104.896217 L 361.130135 105.843059 L 358.020772 106.840570 L 354.928032 107.888486 L 351.852733 108.986531 L 348.795687 110.134413 L 345.757701 111.331830 L 342.739578 112.578466 L 339.742116 113.873992 L 336.766106 115.218064 L 333.812334 116.610328 L 330.881582 118.050417 L 327.974622 119.537948 L 325.092223 121.072531 L 322.235147 122.653759 L 319.404148 124.281215 L 316.599974 125.954468 Z " style="stroke: rgb(0%,50%,0%); stroke-linecap: butt; stroke-width: 1; fill: rgb(0%,50%,0%);"/>
			<path d="M 355.146724 476.797590 L 352.040701 475.626120 L 348.955522 474.400806 L 345.892121 473.122019 L 342.851424 471.790147 L 339.834351 470.405592 L 336.841814 468.968773 L 333.874720 467.480124 L 330.933965 465.940097 L 328.020440 464.349156 L 325.135025 462.707784 L 322.278593 461.016476 L 319.452009 459.275744 L 316.656128 457.486116 L 313.891795 455.648132 L 311.159847 453.762348 L 308.461110 451.829334 L 305.796400 449.849677 L 303.166524 447.823973 L 300.572277 445.752837 L 298.014443 443.636895 L 295.493798 441.476786 L 293.011103 439.273165 L 290.567109 437.026697 L 288.162555 434.738063 L 285.798170 432.407955 L 283.474668 430.037078 L 281.192752 427.626148 L 278.953112 425.175896 L 276.756426 422.687062 L 274.603359 420.160399 L 272.494561 417.596672 L 270.430672 414.996656 L 268.412314 412.361138 L 266.440099 409.690915 L 264.514623 406.986795 L 262.636469 404.249596 L 260.806204 401.480146 L 259.024384 398.679282 L 257.291546 395.847852 L 255.608214 392.986713 L 253.974899 390.096729 L 252.392094 387.178776 L 250.860277 384.233736 L 249.379913 381.262500 L 247.951449 378.265966 L 246.575317 375.245042 L 245.251934 372.200641 L 243.981700 369.133683 L 242.764999 366.045098 L 241.602199 362.935818 L 240.493652 359.806785 L 239.439693 356.658946 L 238.440642 353.493252 L 237.496799 350.310661 L 236.608452 347.112136 L 235.775868 343.898644 L 234.999300 340.671159 L 234.278982 337.430655 L 233.615133 334.178113 L 233.007952 330.914518 L 232.457625 327.640856 L 231.964316 324.358118 L 231.528177 321.067297 L 231.149337 317.769388 L 230.827913 314.465389 L 230.564001 311.156299 L 230.357681 307.843120 L 230.209016 304.526854 L 230.118050 301.208504 L 230.084811 297.889073 L 230.109309 294.569567 L 230.191537 291.250989 L 230.331470 287.934343 L 230.529065 284.620632 L 230.784263 281.310859 L 231.096987 278.006025 L 231.467141 274.707130 L 231.894614 271.415172 L 232.379277 268.131146 L 232.920983 264.856046 L 233.519567 261.590864 L 234.174850 258.336585 L 234.886633 255.094196 L 235.654700 251.864677 L 236.478820 248.649004 L 237.358742 245.448151 L 238.294201 242.263086 L 239.284913 239.094772 L 240.330580 235.944169 L 241.430884 232.812228 L 242.585493 229.699897 L 243.794057 226.608119 L 245.056211 223.537827 L 246.371574 220.489952 L 247.739746 217.465414 L 249.160315 214.465130 L 250.632850 211.490006 L 252.156907 208.540942 L 253.732023 205.618832 L 255.357723 202.724558 L 257.033515 199.858996 L 258.758892 197.023013 L 260.533331 194.217467 L 262.356297 191.443207 L 264.227237 188.701072 L 266.145586 185.991892 L 268.110764 183.316485 L 270.122175 180.675661 L 272.179211 178.070220 L 274.281251 175.500950 L 276.427658 172.968626 L 278.617782 170.474017 L 280.850963 168.017876 L 283.126522 165.600946 L 285.443774 163.223959 L 287.802016 160.887633 L 290.200534 158.592675 L 292.638605 156.339780 L 295.115489 154.129629 L 297.630438 151.962891 L 300.182691 149.840221 L 302.771475 147.762261 L 305.396009 145.729640 L 308.055496 143.742973 L 310.749134 141.802860 L 313.476108 139.909889 L 316.235592 138.064632 L 319.026751 136.267648 L 321.848742 134.519480 L 324.700710 132.820657 L 327.581793 131.171693 L 330.491119 129.573086 L 333.427808 128.025320 L 336.390973 126.528864 L 339.379715 125.084171 L 342.393132 123.691676 L 345.430312 122.351802 L 348.490335 121.064953 L 351.572277 119.831520 L 354.675205 118.651875 L 357.798180 117.526375 L 354.474669 108.046826 L 351.187327 109.231563 L 347.921087 110.473295 L 344.676938 111.771646 L 341.455861 113.126223 L 338.258830 114.536617 L 335.086812 116.002401 L 331.940767 117.523131 L 328.821647 119.098348 L 325.730395 120.727575 L 322.667946 122.410319 L 319.635227 124.146071 L 316.633155 125.934306 L 313.662639 127.774483 L 310.724576 129.666045 L 307.819857 131.608420 L 304.949358 133.601021 L 302.113950 135.643245 L 299.314489 137.734474 L 296.551822 139.874075 L 293.826786 142.061401 L 291.140204 144.295791 L 288.492889 146.576568 L 285.885643 148.903043 L 283.319253 151.274511 L 280.794496 153.690256 L 278.312137 156.149546 L 275.872925 158.651638 L 273.477598 161.195775 L 271.126882 163.781187 L 268.821488 166.407091 L 266.562112 169.072695 L 264.349439 171.777190 L 262.184137 174.519760 L 260.066863 177.299574 L 257.998255 180.115791 L 255.978940 182.967560 L 254.009529 185.854019 L 252.090618 188.774292 L 250.222787 191.727498 L 248.406601 194.712743 L 246.642610 197.729124 L 244.931346 200.775728 L 243.273329 203.851634 L 241.669059 206.955912 L 240.119022 210.087621 L 238.623686 213.245815 L 237.183505 216.429539 L 235.798913 219.637829 L 234.470329 222.869714 L 233.198156 226.124218 L 231.982779 229.400356 L 230.824564 232.697136 L 229.723862 236.013561 L 228.681007 239.348628 L 227.696313 242.701328 L 226.770080 246.070647 L 225.902586 249.455565 L 225.094094 252.855059 L 224.344849 256.268101 L 223.655077 259.693657 L 223.024988 263.130691 L 222.454771 266.578165 L 221.944600 270.035034 L 221.494628 273.500253 L 221.104992 276.972774 L 220.775810 280.451547 L 220.507180 283.935518 L 220.299185 287.423635 L 220.151888 290.914841 L 220.065332 294.408081 L 220.039544 297.902299 L 220.074532 301.396436 L 220.170286 304.889436 L 220.326776 308.380243 L 220.543955 311.867799 L 220.821757 315.351051 L 221.160098 318.828945 L 221.558876 322.300428 L 222.017971 325.764451 L 222.537243 329.219964 L 223.116535 332.665924 L 223.755672 336.101288 L 224.454461 339.525016 L 225.212690 342.936073 L 226.030131 346.333426 L 226.906535 349.716049 L 227.841637 353.082917 L 228.835155 356.433013 L 229.886788 359.765322 L 230.996219 363.078837 L 232.163110 366.372556 L 233.387110 369.645482 L 234.667848 372.896625 L 236.004937 376.125001 L 237.397972 379.329634 L 238.846532 382.509554 L 240.350178 385.663800 L 241.908456 388.791417 L 243.520894 391.891460 L 245.187005 394.962989 L 246.906284 398.005077 L 248.678212 401.016803 L 250.502252 403.997255 L 252.377853 406.945533 L 254.304447 409.860744 L 256.281451 412.742006 L 258.308268 415.588448 L 260.384284 418.399209 L 262.508871 421.173438 L 264.681387 423.910297 L 266.901173 426.608957 L 269.167560 429.268602 L 271.479861 431.888427 L 273.837376 434.467640 L 276.239393 437.005461 L 278.685185 439.501121 L 281.174012 441.953867 L 283.705121 444.362955 L 286.277746 446.727658 L 288.891109 449.047259 L 291.544420 451.321058 L 294.236876 453.548366 L 296.967663 455.728509 L 299.735953 457.860828 L 302.540911 459.944679 L 305.381687 461.979429 L 308.257422 463.964465 L 311.167246 465.899185 L 314.110279 467.783005 L 317.085631 469.615354 L 320.092401 471.395678 L 323.129680 473.123438 L 326.196549 474.798113 L 329.292080 476.419194 L 332.415337 477.986192 L 335.565375 479.498634 L 338.741242 480.956060 L 341.941975 482.358031 L 345.166608 483.704122 L 348.414165 484.993926 L 351.683663 486.227053 Z " style="stroke: rgb(100%,0%,0%); stroke-linecap: butt; stroke-width: 1; fill: rgb(100%,0%,0%);"/>
			<path d="M 460.654490 549.000835 L 459.963391 549.109039 L 459.271997 549.215344 L 458.580314 549.319747 L 457.888347 549.422249 L 457.196100 549.522848 L 456.503579 549.621544 L 455.810790 549.718336 L 455.117737 549.813224 L 454.424426 549.906205 L 453.730863 549.997281 L 453.037051 550.086450 L 452.342997 550.173712 L 451.648706 550.259065 L 450.954182 550.342510 L 450.259432 550.424045 L 449.564460 550.503670 L 448.869273 550.581384 L 448.173874 550.657187 L 447.478269 550.731079 L 446.782464 550.803058 L 446.086464 550.873124 L 445.390274 550.941276 L 444.693899 551.007515 L 443.997344 551.071839 L 443.300616 551.134249 L 442.603718 551.194743 L 441.906657 551.253321 L 441.209437 551.309982 L 440.512065 551.364727 L 439.814544 551.417555 L 439.116881 551.468466 L 438.419081 551.517458 L 437.721148 551.564532 L 437.023089 551.609687 L 436.324908 551.652924 L 435.626611 551.694241 L 434.928203 551.733638 L 434.229690 551.771116 L 433.531076 551.806673 L 432.832367 551.840310 L 432.133568 551.872026 L 431.434685 551.901821 L 430.735722 551.929695 L 430.036686 551.955647 L 429.337580 551.979678 L 428.638412 552.001787 L 427.939185 552.021974 L 427.239905 552.040239 L 426.540578 552.056582 L 425.841208 552.071002 L 425.141802 552.083500 L 424.442364 552.094075 L 423.742899 552.102728 L 423.043413 552.109457 L 422.343912 552.114265 L 421.644399 552.117149 L 420.944882 552.118110 L 420.944882 552.033148 L 421.644166 552.032187 L 422.343445 552.029303 L 423.042713 552.024498 L 423.741965 552.017770 L 424.441196 552.009121 L 425.140401 551.998549 L 425.839574 551.986055 L 426.538710 551.971640 L 427.237804 551.955302 L 427.936850 551.937044 L 428.635843 551.916863 L 429.334778 551.894762 L 430.033650 551.870739 L 430.732453 551.844795 L 431.431183 551.816931 L 432.129833 551.787145 L 432.828398 551.755440 L 433.526874 551.721814 L 434.225255 551.686269 L 434.923535 551.648804 L 435.621710 551.609420 L 436.319773 551.568117 L 437.017721 551.524895 L 437.715547 551.479754 L 438.413246 551.432696 L 439.110814 551.383720 L 439.808244 551.332827 L 440.505532 551.280016 L 441.202672 551.225290 L 441.899658 551.168647 L 442.596487 551.110088 L 443.293152 551.049615 L 443.989648 550.987226 L 444.685970 550.922923 L 445.382112 550.856707 L 446.078070 550.788577 L 446.773838 550.718534 L 447.469411 550.646579 L 448.164783 550.572712 L 448.859950 550.496935 L 449.554905 550.419246 L 450.249645 550.339648 L 450.944163 550.258140 L 451.638455 550.174723 L 452.332514 550.089398 L 453.026336 550.002166 L 453.719916 549.913027 L 454.413249 549.821981 L 455.106328 549.729031 L 455.799150 549.634175 L 456.491708 549.537415 L 457.183997 549.438752 L 457.876012 549.338186 L 458.567749 549.235719 L 459.259201 549.131350 L 459.950364 549.025082 L 460.641232 548.916913 Z " style="stroke: rgb(0%,50%,0%); stroke-linecap: butt; stroke-width: 1; fill: rgb(0%,50%,0%);"/>
			<path d="M 541.836702 521.569478 L 540.505358 522.283123 L 539.169801 522.988853 L 537.830078 523.686643 L 536.486238 524.376468 L 535.138326 525.058305 L 533.786390 525.732128 L 532.430479 526.397915 L 531.070640 527.055641 L 529.706920 527.705285 L 528.339369 528.346822 L 526.968033 528.980230 L 525.592962 529.605487 L 524.214203 530.222571 L 522.831806 530.831460 L 521.445819 531.432133 L 520.056291 532.024568 L 518.663271 532.608745 L 517.266808 533.184642 L 515.866951 533.752241 L 514.463750 534.311520 L 513.057254 534.862460 L 511.647512 535.405042 L 510.234574 535.939246 L 508.818490 536.465054 L 507.399310 536.982447 L 505.977084 537.491407 L 504.551862 537.991916 L 503.123694 538.483957 L 501.692631 538.967511 L 500.258722 539.442562 L 498.822019 539.909094 L 497.382572 540.367089 L 495.940432 540.816532 L 494.495649 541.257407 L 493.048275 541.689698 L 491.598361 542.113390 L 490.145957 542.528469 L 488.691115 542.934918 L 487.233885 543.332725 L 485.774321 543.721876 L 484.312472 544.102355 L 482.848390 544.474151 L 481.382127 544.837249 L 479.913735 545.191638 L 478.443265 545.537305 L 476.970769 545.874236 L 475.496299 546.202422 L 474.019907 546.521849 L 472.541645 546.832508 L 471.061565 547.134386 L 469.579719 547.427473 L 468.096159 547.711760 L 466.610939 547.987235 L 465.124109 548.253889 L 463.635722 548.511713 L 462.145832 548.760698 L 460.654490 549.000835 L 462.221974 558.923060 L 463.772185 558.673444 L 465.320887 558.414631 L 466.868026 558.146630 L 468.413546 557.869450 L 469.957394 557.583100 L 471.499515 557.287592 L 473.039855 556.982936 L 474.578359 556.669141 L 476.114974 556.346220 L 477.649644 556.014183 L 479.182317 555.673043 L 480.712938 555.322811 L 482.241453 554.963500 L 483.767808 554.595123 L 485.291949 554.217691 L 486.813824 553.831219 L 488.333377 553.435721 L 489.850557 553.031210 L 491.365308 552.617700 L 492.877578 552.195206 L 494.387314 551.763743 L 495.894462 551.323326 L 497.398969 550.873971 L 498.900783 550.415693 L 500.399849 549.948509 L 501.896117 549.472435 L 503.389532 548.987487 L 504.880042 548.493684 L 506.367595 547.991042 L 507.852138 547.479579 L 509.333618 546.959313 L 510.811985 546.430263 L 512.287185 545.892446 L 513.759167 545.345883 L 515.227879 544.790591 L 516.693268 544.226592 L 518.155284 543.653904 L 519.613875 543.072548 L 521.068990 542.482544 L 522.520576 541.883914 L 523.968584 541.276677 L 525.412962 540.660857 L 526.853659 540.036473 L 528.290624 539.403549 L 529.723807 538.762107 L 531.153157 538.112168 L 532.578625 537.453757 L 534.000159 536.786896 L 535.417709 536.111609 L 536.831226 535.427920 L 538.240660 534.735852 L 539.645962 534.035430 L 541.047081 533.326679 L 542.443968 532.609624 L 543.836574 531.884289 L 545.224851 531.150702 L 546.608748 530.408886 Z " style="stroke: rgb(100%,0%,0%); stroke-linecap: butt; stroke-width: 1; fill: rgb(100%,0%,0%);"/>
			<path d="M 675.390712 301.827113 L 675.279600 306.244891 L 675.091790 310.660074 L 674.827340 315.071330 L 674.486329 319.477329 L 674.068860 323.876742 L 673.575059 328.268242 L 673.005075 332.650505 L 672.359079 337.022210 L 671.637267 341.382038 L 670.839856 345.728674 L 669.967086 350.060809 L 669.019222 354.377134 L 667.996548 358.676349 L 666.899373 362.957158 L 665.728028 367.218268 L 664.482866 371.458396 L 663.164262 375.676263 L 661.772615 379.870596 L 660.308344 384.040131 L 658.771891 388.183611 L 657.163718 392.299785 L 655.484311 396.387413 L 653.734176 400.445263 L 651.913841 404.472109 L 650.023855 408.466739 L 648.064788 412.427947 L 646.037231 416.354539 L 643.941794 420.245331 L 641.779111 424.099149 L 639.549833 427.914831 L 637.254632 431.691227 L 634.894201 435.427198 L 632.469251 439.121617 L 629.980514 442.773370 L 627.428740 446.381356 L 624.814699 449.944487 L 622.139179 453.461688 L 619.402986 456.931899 L 616.606947 460.354073 L 613.751903 463.727178 L 610.838717 467.050198 L 607.868266 470.322129 L 604.841447 473.541986 L 601.759171 476.708797 L 598.622369 479.821607 L 595.431987 482.879478 L 592.188986 485.881487 L 588.894345 488.826729 L 585.549057 491.714317 L 582.154131 494.543378 L 578.710591 497.313061 L 575.219475 500.022530 L 571.681835 502.670967 L 568.098740 505.257575 L 564.471268 507.781573 L 560.800515 510.242199 L 557.087587 512.638713 L 553.333604 514.970391 L 549.539697 517.236530 L 545.707011 519.436447 L 541.836702 521.569478 L 544.746338 526.959086 L 548.709798 524.774717 L 552.634729 522.521853 L 556.519948 520.201172 L 560.364282 517.813375 L 564.166573 515.359182 L 567.925675 512.839332 L 571.640452 510.254587 L 575.309786 507.605725 L 578.932570 504.893544 L 582.507710 502.118864 L 586.034130 499.282520 L 589.510766 496.385368 L 592.936568 493.428282 L 596.310505 490.412153 L 599.631559 487.337892 L 602.898728 484.206424 L 606.111026 481.018694 L 609.267486 477.775664 L 612.367155 474.478312 L 615.409099 471.127631 L 618.392401 467.724633 L 621.316160 464.270344 L 624.179494 460.765804 L 626.981542 457.212072 L 629.721457 453.610218 L 632.398413 449.961330 L 635.011603 446.266507 L 637.560240 442.526863 L 640.043553 438.743526 L 642.460795 434.917638 L 644.811237 431.050351 L 647.094170 427.142832 L 649.308905 423.196260 L 651.454774 419.211825 L 653.531131 415.190727 L 655.537349 411.134180 L 657.472823 407.043408 L 659.336970 402.919642 L 661.129227 398.764128 L 662.849055 394.578119 L 664.495933 390.362876 L 666.069366 386.119670 L 667.568880 381.849783 L 668.994021 377.554500 L 670.344361 373.235117 L 671.619491 368.892937 L 672.819028 364.529270 L 673.942610 360.145431 L 674.989898 355.742742 L 675.960576 351.322531 L 676.854351 346.886130 L 677.670955 342.434878 L 678.410139 337.970118 L 679.071683 333.493194 L 679.655386 329.005458 L 680.161072 324.508263 L 680.588588 320.002965 L 680.937807 315.490922 L 681.208621 310.973496 L 681.400951 306.452048 L 681.514738 301.927942 Z " style="stroke: rgb(100%,0%,0%); stroke-linecap: butt; stroke-width: 1; fill: rgb(100%,0%,0%);"/>
			<path d="M 552.868107 80.022324 L 556.628275 82.346719 L 560.347500 84.736079 L 564.024659 87.189683 L 567.658644 89.706790 L 571.248357 92.286642 L 574.792715 94.928459 L 578.290649 97.631445 L 581.741103 100.394783 L 585.143037 103.217640 L 588.495422 106.099165 L 591.797249 109.038486 L 595.047521 112.034719 L 598.245256 115.086958 L 601.389490 118.194283 L 604.479274 121.355755 L 607.513676 124.570421 L 610.491780 127.837311 L 613.412687 131.155440 L 616.275516 134.523804 L 619.079404 137.941390 L 621.823503 141.407164 L 624.506987 144.920081 L 627.129045 148.479082 L 629.688886 152.083092 L 632.185737 155.731024 L 634.618846 159.421777 L 636.987478 163.154237 L 639.290917 166.927278 L 641.528471 170.739761 L 643.699462 174.590536 L 645.803236 178.478442 L 647.839157 182.402304 L 649.806613 186.360939 L 651.705009 190.353153 L 653.533772 194.377740 L 655.292350 198.433486 L 656.980212 202.519167 L 658.596851 206.633551 L 660.141776 210.775396 L 661.614523 214.943452 L 663.014647 219.136461 L 664.341725 223.353158 L 665.595358 227.592271 L 666.775166 231.852521 L 667.880793 236.132622 L 668.911907 240.431282 L 669.868196 244.747204 L 670.749370 249.079086 L 671.555166 253.425621 L 672.285338 257.785498 L 672.939668 262.157400 L 673.517957 266.540008 L 674.020031 270.932000 L 674.445739 275.332051 L 674.794951 279.738832 L 675.067564 284.151015 L 675.263494 288.567268 L 675.382682 292.986257 L 675.425092 297.406650 L 675.390712 301.827113 L 665.346797 301.661745 L 665.379820 297.415774 L 665.339084 293.169870 L 665.224601 288.925315 L 665.036405 284.683388 L 664.774554 280.445370 L 664.439126 276.212541 L 664.030223 271.986176 L 663.547967 267.767552 L 662.992505 263.557942 L 662.364005 259.358615 L 661.662655 255.170839 L 660.888667 250.995877 L 660.042275 246.834991 L 659.123735 242.689434 L 658.133323 238.560457 L 657.071339 234.449308 L 655.938102 230.357226 L 654.733955 226.285447 L 653.459262 222.235198 L 652.114406 218.207702 L 650.699794 214.204175 L 649.215852 210.225824 L 647.663028 206.273850 L 646.041792 202.349445 L 644.352631 198.453794 L 642.596056 194.588073 L 640.772597 190.753447 L 638.882804 186.951074 L 636.927248 183.182101 L 634.906518 179.447665 L 632.821224 175.748894 L 630.671995 172.086903 L 628.459480 168.462798 L 626.184347 164.877672 L 623.847282 161.332607 L 621.448991 157.828673 L 618.990196 154.366926 L 616.471641 150.948412 L 613.894084 147.574162 L 611.258304 144.245195 L 608.565096 140.962515 L 605.815274 137.727112 L 603.009665 134.539962 L 600.149118 131.402028 L 597.234495 128.314257 L 594.266676 125.277579 L 591.246557 122.292912 L 588.175048 119.361156 L 585.053077 116.483196 L 581.881585 113.659900 L 578.661530 110.892120 L 575.393884 108.180691 L 572.079632 105.526432 L 568.719774 102.930143 L 565.315325 100.392608 L 561.867311 97.914593 L 558.376773 95.496845 L 554.844765 93.140094 L 551.272352 90.845051 L 547.660611 88.612408 Z " style="stroke: rgb(0%,50%,0%); stroke-linecap: butt; stroke-width: 1; fill: rgb(0%,50%,0%);"/>
			<path d="M 426.434155 43.216690 L 428.770144 43.277822 L 431.105473 43.360401 L 433.439945 43.464421 L 435.773364 43.589873 L 438.105533 43.736746 L 440.436254 43.905028 L 442.765332 44.094705 L 445.092570 44.305760 L 447.417772 44.538177 L 449.740742 44.791935 L 452.061284 45.067013 L 454.379202 45.363387 L 456.694301 45.681034 L 459.006385 46.019925 L 461.315260 46.380033 L 463.620731 46.761326 L 465.922604 47.163774 L 468.220684 47.587342 L 470.514777 48.031994 L 472.804691 48.497692 L 475.090233 48.984399 L 477.371208 49.492071 L 479.647426 50.020667 L 481.918694 50.570143 L 484.184821 51.140451 L 486.445615 51.731544 L 488.700887 52.343371 L 490.950445 52.975882 L 493.194100 53.629023 L 495.431663 54.302738 L 497.662946 54.996971 L 499.887759 55.711664 L 502.105916 56.446757 L 504.317230 57.202186 L 506.521514 57.977889 L 508.718582 58.773800 L 510.908249 59.589852 L 513.090330 60.425976 L 515.264641 61.282102 L 517.430999 62.158157 L 519.589222 63.054068 L 521.739127 63.969760 L 523.880533 64.905154 L 526.013259 65.860172 L 528.137126 66.834733 L 530.251955 67.828756 L 532.357567 68.842157 L 534.453784 69.874849 L 536.540431 70.926746 L 538.617330 71.997760 L 540.684308 73.087800 L 542.741189 74.196773 L 544.787800 75.324587 L 546.823968 76.471147 L 548.849523 77.636355 L 550.864292 78.820114 L 552.868107 80.022324 L 555.964777 74.914176 L 553.913926 73.683747 L 551.851864 72.472201 L 549.778763 71.279642 L 547.694798 70.106168 L 545.600147 68.951881 L 543.494984 67.816876 L 541.379488 66.701250 L 539.253837 65.605096 L 537.118210 64.528507 L 534.972787 63.471574 L 532.817750 62.434386 L 530.653279 61.417030 L 528.479558 60.419592 L 526.296770 59.442157 L 524.105098 58.484806 L 521.904728 57.547620 L 519.695844 56.630679 L 517.478635 55.734060 L 515.253285 54.857838 L 513.019983 54.002087 L 510.778918 53.166880 L 508.530278 52.352286 L 506.274252 51.558375 L 504.011032 50.785213 L 501.740807 50.032866 L 499.463770 49.301397 L 497.180112 48.590867 L 494.890026 47.901338 L 492.593705 47.232866 L 490.291342 46.585508 L 487.983132 45.959319 L 485.669269 45.354351 L 483.349949 44.770656 L 481.025367 44.208283 L 478.695719 43.667279 L 476.361201 43.147689 L 474.022011 42.649558 L 471.678345 42.172928 L 469.330402 41.717839 L 466.978378 41.284329 L 464.622473 40.872434 L 462.262885 40.482190 L 459.899813 40.113630 L 457.533456 39.766783 L 455.164015 39.441681 L 452.791688 39.138349 L 450.416675 38.856815 L 448.039178 38.597100 L 445.659396 38.359228 L 443.277530 38.143218 L 440.893781 37.949089 L 438.508349 37.776857 L 436.121437 37.626536 L 433.733245 37.498140 L 431.343975 37.391678 L 428.953828 37.307161 L 426.563006 37.244594 Z " style="stroke: rgb(100%,0%,0%); stroke-linecap: butt; stroke-width: 1; fill: rgb(100%,0%,0%);"/>
			<path d="M 420.367019 552.117454 L 415.923227 552.068559 L 411.480966 551.942072 L 407.041591 551.738030 L 402.606457 551.456496 L 398.176915 551.097556 L 393.754316 550.661320 L 389.340009 550.147919 L 384.935341 549.557512 L 380.541655 548.890278 L 376.160290 548.146420 L 371.792583 547.326166 L 367.439866 546.429765 L 363.103466 545.457491 L 358.784706 544.409640 L 354.484903 543.286532 L 350.205367 542.088510 L 345.947405 540.815938 L 341.712314 539.469205 L 337.501387 538.048722 L 333.315907 536.554922 L 329.157151 534.988260 L 325.026387 533.349214 L 320.924875 531.638285 L 316.853866 529.855992 L 312.814601 528.002882 L 308.808312 526.079517 L 304.836221 524.086486 L 300.899539 522.024396 L 296.999467 519.893875 L 293.137194 517.695573 L 289.313898 515.430162 L 285.530745 513.098331 L 281.788889 510.700792 L 278.089471 508.238276 L 274.433619 505.711533 L 270.822448 503.121336 L 267.257059 500.468473 L 263.738539 497.753753 L 260.267963 494.978005 L 256.846387 492.142075 L 253.474856 489.246827 L 250.154397 486.293145 L 246.886024 483.281930 L 243.670733 480.214099 L 240.509504 477.090589 L 237.403302 473.912352 L 234.353075 470.680357 L 231.359751 467.395590 L 228.424244 464.059052 L 225.547450 460.671762 L 222.730245 457.234752 L 219.973489 453.749070 L 217.278023 450.215780 L 214.644668 446.635958 L 212.074228 443.010697 L 209.567486 439.341102 L 207.125207 435.628293 L 204.748136 431.873401 L 202.436997 428.077571 L 200.192497 424.241962 L 198.015318 420.367743 L 195.906125 416.456096 L 193.865561 412.508212 L 191.894249 408.525298 L 189.992789 404.508566 L 188.161762 400.459243 L 186.401727 396.378562 L 184.713218 392.267769 L 183.096753 388.128116 L 181.552823 383.960868 L 180.081900 379.767293 L 178.684431 375.548672 L 177.360844 371.306291 L 176.111542 367.041443 L 174.936906 362.755430 L 173.837294 358.449558 L 172.813041 354.125140 L 171.864460 349.783496 L 170.991840 345.425949 L 170.195448 341.053828 L 169.475525 336.668467 L 168.832292 332.271203 L 168.265945 327.863377 L 167.776657 323.446333 L 167.364576 319.021418 L 167.029829 314.589982 L 166.772517 310.153376 L 166.592719 305.712953 L 166.490490 301.270068 L 166.465862 296.826075 L 166.518840 292.382329 L 166.649410 287.940186 L 166.857531 283.501001 L 167.143141 279.066127 L 167.506151 274.636916 L 167.946452 270.214721 L 168.463908 265.800888 L 169.058363 261.396764 L 169.729635 257.003693 L 170.477518 252.623014 L 171.301786 248.256062 L 172.202187 243.904171 L 173.178446 239.568666 L 174.230265 235.250871 L 175.357323 230.952101 L 176.559278 226.673668 L 177.835762 222.416877 L 179.186386 218.183026 L 180.610738 213.973406 L 182.108384 209.789301 L 183.678867 205.631986 L 185.321708 201.502730 L 187.036406 197.402792 L 188.822439 193.333423 L 190.679261 189.295862 L 192.606306 185.291343 L 194.602987 181.321085 L 196.668694 177.386300 L 198.802798 173.488187 L 201.004648 169.627936 L 203.273572 165.806723 L 205.608878 162.025715 L 208.009855 158.286064 L 210.475770 154.588910 L 213.005871 150.935381 L 215.599386 147.326592 L 218.255524 143.763642 L 220.973476 140.247619 L 223.752412 136.779595 L 226.591486 133.360627 L 229.489830 129.991757 L 232.446562 126.674015 L 235.460780 123.408410 L 238.531564 120.195940 L 241.657978 117.037583 L 244.839068 113.934303 L 248.073865 110.887047 L 251.361381 107.896743 L 254.700615 104.964304 L 258.090548 102.090623 L 261.530145 99.276578 L 265.018359 96.523027 L 268.554125 93.830808 L 272.136365 91.200744 L 275.763987 88.633637 L 279.435884 86.130268 L 283.150936 83.691402 L 286.908011 81.317783 L 290.705962 79.010133 L 294.543633 76.769158 L 298.419851 74.595540 L 302.333435 72.489943 L 306.283192 70.453008 L 310.267916 68.485357 L 314.286393 66.587590 L 318.337398 64.760285 L 322.419694 63.004000 L 326.532038 61.319270 L 330.673173 59.706609 L 334.841839 58.166509 L 339.036764 56.699440 L 343.256667 55.305849 L 347.500263 53.986162 L 351.766257 52.740779 L 356.053348 51.570082 L 360.360228 50.474427 L 364.685585 49.454149 L 369.028100 48.509558 L 373.386447 47.640943 L 377.759298 46.848569 L 382.145318 46.132677 L 386.543172 45.493485 L 390.951517 44.931189 L 395.369009 44.445960 L 399.794300 44.037946 L 404.226042 43.707271 L 408.662882 43.454037 L 413.103469 43.278319 L 417.546446 43.180173 L 421.990460 43.159628 L 426.434155 43.216690 L 426.426196 43.585572 L 421.988944 43.528593 L 417.551373 43.549108 L 413.114838 43.647112 L 408.680690 43.822574 L 404.250282 44.075442 L 399.824966 44.405637 L 395.406091 44.813060 L 390.995004 45.297585 L 386.593051 45.859066 L 382.201573 46.497331 L 377.821912 47.212185 L 373.455401 48.003411 L 369.103373 48.870766 L 364.767155 49.813987 L 360.448069 50.832786 L 356.147433 51.926852 L 351.866558 53.095852 L 347.606749 54.339429 L 343.369306 55.657203 L 339.155521 57.048774 L 334.966679 58.513716 L 330.804057 60.051582 L 326.668925 61.661905 L 322.562545 63.344192 L 318.486167 65.097931 L 314.441036 66.922586 L 310.428385 68.817602 L 306.449438 70.782401 L 302.505408 72.816382 L 298.597498 74.918927 L 294.726900 77.089393 L 290.894794 79.327119 L 287.102349 81.631422 L 283.350722 84.001600 L 279.641056 86.436930 L 275.974483 88.936669 L 272.352121 91.500055 L 268.775074 94.126305 L 265.244435 96.814620 L 261.761279 99.564180 L 258.326668 102.374145 L 254.941650 105.243658 L 251.607258 108.171846 L 248.324508 111.157814 L 245.094402 114.200652 L 241.917924 117.299433 L 238.796043 120.453210 L 235.729711 123.661023 L 232.719864 126.921893 L 229.767419 130.234825 L 226.873276 133.598810 L 224.038319 137.012821 L 221.263412 140.475817 L 218.549401 143.986743 L 215.897113 147.544526 L 213.307359 151.148083 L 210.780926 154.796315 L 208.318587 158.488108 L 205.921091 162.222337 L 203.589171 165.997864 L 201.323536 169.813536 L 199.124879 173.668190 L 196.993869 177.560651 L 194.931157 181.489731 L 192.937371 185.454232 L 191.013120 189.452946 L 189.158990 193.484652 L 187.375547 197.548122 L 185.663335 201.642115 L 184.022876 205.765384 L 182.454670 209.916671 L 180.959195 214.094710 L 179.536908 218.298227 L 178.188243 222.525939 L 176.913609 226.776558 L 175.713398 231.048788 L 174.587973 235.341325 L 173.537679 239.652860 L 172.562836 243.982078 L 171.663741 248.327660 L 170.840668 252.688280 L 170.093868 257.062608 L 169.423570 261.449310 L 168.829977 265.847048 L 168.313271 270.254481 L 167.873609 274.670265 L 167.511125 279.093054 L 167.225929 283.521498 L 167.018110 287.954247 L 166.887729 292.389949 L 166.834827 296.827252 L 166.859421 301.264801 L 166.961501 305.701245 L 167.141038 310.135230 L 167.397977 314.565403 L 167.732239 318.990414 L 168.143722 323.408913 L 168.632301 327.819553 L 169.197827 332.220988 L 169.840127 336.611877 L 170.559006 340.990880 L 171.354244 345.356662 L 172.225598 349.707891 L 173.172804 354.043240 L 174.195572 358.361388 L 175.293589 362.661017 L 176.466523 366.940816 L 177.714014 371.199480 L 179.035682 375.435710 L 180.431124 379.648215 L 181.899914 383.835709 L 183.441606 387.996916 L 185.055728 392.130566 L 186.741788 396.235399 L 188.499272 400.310163 L 190.327644 404.353616 L 192.226346 408.364523 L 194.194800 412.341663 L 196.232406 416.283822 L 198.338540 420.189799 L 200.512563 424.058400 L 202.753809 427.888448 L 205.061597 431.678774 L 207.435221 435.428222 L 209.873959 439.135648 L 212.377067 442.799923 L 214.943780 446.419928 L 217.573317 449.994559 L 220.264875 453.522726 L 223.017634 457.003354 L 225.830754 460.435381 L 228.703378 463.817760 L 231.634628 467.149460 L 234.623612 470.429465 L 237.669417 473.656774 L 240.771115 476.830403 L 243.927760 479.949384 L 247.138390 483.012767 L 250.402024 486.019616 L 253.717668 488.969016 L 257.084311 491.860065 L 260.500926 494.691884 L 263.966471 497.463608 L 267.479889 500.174391 L 271.040108 502.823408 L 274.646044 505.409850 L 278.296595 507.932929 L 281.990650 510.391874 L 285.727081 512.785937 L 289.504748 515.114387 L 293.322501 517.376514 L 297.179174 519.571629 L 301.073591 521.699060 L 305.004565 523.758161 L 308.970897 525.748303 L 312.971378 527.668878 L 317.004786 529.519302 L 321.069893 531.299010 L 325.165458 533.007459 L 329.290233 534.644129 L 333.442959 536.208519 L 337.622371 537.700154 L 341.827193 539.118577 L 346.056143 540.463357 L 350.307931 541.734084 L 354.581262 542.930369 L 358.874831 544.051849 L 363.187330 545.098180 L 367.517443 546.069044 L 371.863849 546.964146 L 376.225223 547.783211 L 380.600235 548.525990 L 384.987551 549.192257 L 389.385833 549.781808 L 393.793739 550.294464 L 398.209926 550.730068 L 402.633045 551.088488 L 407.061750 551.369613 L 411.494688 551.573359 L 415.930508 551.699663 L 420.367857 551.748487 Z " style="stroke: rgb(0%,50%,0%); stroke-linecap: butt; stroke-width: 1; fill: rgb(0%,50%,0%);"/>
			<circle cx="420.9448818897638" cy="297.6377952755905" r="200.9055118110236" style="stroke: rgb(0%,0%,0%); stroke-linecap: butt; stroke-width: 1; fill: none;"/>
			<circle cx="420.9448818897638" cy="297.6377952755905" r="254.48031496062987" style="stroke: rgb(0%,0%,0%); stroke-linecap: butt; stroke-width: 1; fill: none;"/>
			<path d="M 420.944882,542.072835 L 420.944882,562.163386 Z" style="stroke: rgb(0%,0%,0%); stroke-linecap: butt; stroke-width: 1;"/>
			<path d="M 632.631836,419.855315 L 650.030763,429.900591 Z" style="stroke: rgb(0%,0%,0%); stroke-linecap: butt; stroke-width: 1;"/>
			<path d="M 632.631836,175.420276 L 650.030763,165.375000 Z" style="stroke: rgb(0%,0%,0%); stroke-linecap: butt; stroke-width: 1;"/>
			<path d="M 420.944882,53.202756 L 420.944882,33.112205 Z" style="stroke: rgb(0%,0%,0%); stroke-linecap: butt; stroke-width: 1;"/>
			<path d="M 209.257928,175.420276 L 191.859001,165.375000 Z" style="stroke: rgb(0%,0%,0%); stroke-linecap: butt; stroke-width: 1;"/>
			<path d="M 209.257928,419.855315 L 191.859001,429.900591 Z" style="stroke: rgb(0%,0%,0%); stroke-linecap: butt; stroke-width: 1;"/>
			<g transform=" matrix(1.000000,-0.000000,0.000000,1.000000,420.944882,542.072835)">
				<text style="font-family: Helvetica; font-size: 6px; fill: rgb(0%,0%,0%);" transform="translate(0,0) scale(1,-1)" x="-9.174000000000001" y="0">38.025</text>
			</g>
			<g transform=" matrix(1.000000,-0.000000,0.000000,1.000000,420.944882,562.163386)">
				<text style="font-family: Helvetica; font-size: 6px; fill: rgb(0%,0%,0%);" transform="translate(0,0) scale(1,-1)" x="-9.174000000000001" y="0">50.585</text>
			</g>
			<g transform=" matrix(1.000000,-0.000000,0.000000,1.000000,420.944882,552.118110)">
				<text style="font-family: Helvetica; font-size: 6px; fill: rgb(0%,0%,0%);" transform="translate(0,0) scale(1,-1)" x="-9.174000000000001" y="0">44.305</text>
			</g>
			<g transform=" matrix(0.500000,-0.866025,0.866025,0.500000,632.631836,419.855315)">
				<text style="font-family: Helvetica; font-size: 6px; fill: rgb(0%,0%,0%);" transform="translate(0,0) scale(1,-1)" x="-9.174000000000001" y="0">38.025</text>
			</g>
			<g transform=" matrix(0.500000,-0.866025,0.866025,0.500000,650.030763,429.900591)">
				<text style="font-family: Helvetica; font-size: 6px; fill: rgb(0%,0%,0%);" transform="translate(0,0) scale(1,-1)" x="-9.174000000000001" y="0">50.585</text>
			</g>
			<g transform=" matrix(0.500000,-0.866025,0.866025,0.500000,641.331299,424.877953)">
				<text style="font-family: Helvetica; font-size: 6px; fill: rgb(0%,0%,0%);" transform="translate(0,0) scale(1,-1)" x="-9.174000000000001" y="0">44.305</text>
			</g>
			<g transform=" matrix(-0.500000,-0.866025,0.866025,-0.500000,632.631836,175.420276)">
				<text style="font-family: Helvetica; font-size: 6px; fill: rgb(0%,0%,0%);" transform="translate(0,0) scale(1,-1)" x="-9.174000000000001" y="0">38.025</text>
			</g>
			<g transform=" matrix(-0.500000,-0.866025,0.866025,-0.500000,650.030763,165.375000)">
				<text style="font-family: Helvetica; font-size: 6px; fill: rgb(0%,0%,0%);" transform="translate(0,0) scale(1,-1)" x="-9.174000000000001" y="0">50.585</text>
			</g>
			<g transform=" matrix(-0.500000,-0.866025,0.866025,-0.500000,641.331299,170.397638)">
				<text style="font-family: Helvetica; font-size: 6px; fill: rgb(0%,0%,0%);" transform="translate(0,0) scale(1,-1)" x="-9.174000000000001" y="0">44.305</text>
			</g>
			<g transform=" matrix(-1.000000,-0.000000,0.000000,-1.000000,420.944882,53.202756)">
				<text style="font-family: Helvetica; font-size: 6px; fill: rgb(0%,0%,0%);" transform="translate(0,0) scale(1,-1)" x="-9.174000000000001" y="0">38.025</text>
			</g>
			<g transform=" matrix(-1.000000,-0.000000,0.000000,-1.000000,420.944882,33.112205)">
				<text style="font-family: Helvetica; font-size: 6px; fill: rgb(0%,0%,0%);" transform="translate(0,0) scale(1,-1)" x="-9.174000000000001" y="0">50.585</text>
			</g>
			<g transform=" matrix(-1.000000,-0.000000,0.000000,-1.000000,420.944882,43.157480)">
				<text style="font-family: Helvetica; font-size: 6px; fill: rgb(0%,0%,0%);" transform="translate(0,0) scale(1,-1)" x="-9.174000000000001" y="0">44.305</text>
			</g>
			<g transform=" matrix(-0.500000,0.866025,-0.866025,-0.500000,209.257928,175.420276)">
				<text style="font-family: Helvetica; font-size: 6px; fill: rgb(0%,0%,0%);" transform="translate(0,0) scale(1,-1)" x="-9.174000000000001" y="0">38.025</text>
			</g>
			<g transform=" matrix(-0.500000,0.866025,-0.866025,-0.500000,191.859001,165.375000)">
				<text style="font-family: Helvetica; font-size: 6px; fill: rgb(0%,0%,0%);" transform="translate(0,0) scale(1,-1)" x="-9.174000000000001" y="0">50.585</text>
			</g>
			<g transform=" matrix(-0.500000,0.866025,-0.866025,-0.500000,200.558464,170.397638)">
				<text style="font-family: Helvetica; font-size: 6px; fill: rgb(0%,0%,0%);" transform="translate(0,0) scale(1,-1)" x="-9.174000000000001" y="0">44.305</text>
			</g>
			<g transform=" matrix(0.500000,0.866025,-0.866025,0.500000,209.257928,419.855315)">
				<text style="font-family: Helvetica; font-size: 6px; fill: rgb(0%,0%,0%);" transform="translate(0,0) scale(1,-1)" x="-9.174000000000001" y="0">38.025</text>
			</g>
			<g transform=" matrix(0.500000,0.866025,-0.866025,0.500000,191.859001,429.900591)">
				<text style="font-family: Helvetica; font-size: 6px; fill: rgb(0%,0%,0%);" transform="translate(0,0) scale(1,-1)" x="-9.174000000000001" y="0">50.585</text>
			</g>
			<g transform=" matrix(0.500000,0.866025,-0.866025,0.500000,200.558464,424.877953)">
				<text style="font-family: Helvetica; font-size: 6px; fill: rgb(0%,0%,0%);" transform="translate(0,0) scale(1,-1)" x="-9.174000000000001" y="0">44.305</text>
			</g>
			<g transform=" matrix(0.886610,0.462518,-0.462518,0.886610,607.975964,395.206278)">
				<text style="font-family: Helvetica; font-size: 6px; fill: rgb(0%,0%,0%);" transform="translate(0,0) scale(1,-1)" x="0" y="0"> v2 </text>
			</g>
			<g transform=" matrix(0.644622,-0.764502,0.764502,0.644622,556.928380,136.365593)">
				<text style="font-family: Helvetica; font-size: 6px; fill: rgb(0%,0%,0%);" transform="translate(0,0) scale(1,-1)" x="0" y="0"> v1 </text>
			</g>
			<g transform=" matrix(-0.208504,-0.978022,0.978022,-0.208504,381.149768,110.972376)">
				<text style="font-family: Helvetica; font-size: 6px; fill: rgb(0%,0%,0%);" transform="translate(0,0) scale(1,-1)" x="-9.672" y="0"> c3 </text>
			</g>
			<g transform=" matrix(-0.519373,-0.854548,0.854548,-0.519373,321.817220,134.538634)">
				<text style="font-family: Helvetica; font-size: 6px; fill: rgb(0%,0%,0%);" transform="translate(0,0) scale(1,-1)" x="-9.672" y="0"> c2 </text>
			</g>
			<g transform=" matrix(0.330853,0.943682,-0.943682,0.330853,357.798180,117.526375)">
				<text style="font-family: Helvetica; font-size: 6px; fill: rgb(0%,0%,0%);" transform="translate(0,0) scale(1,-1)" x="0" y="0"> c1 </text>
			</g>
			<g transform=" matrix(0.000000,1.000000,-1.000000,0.000000,420.944882,488.498031)">
				<text style="font-family: Helvetica; font-size: 8px; fill: rgb(60%,60%,60%);" transform="translate(0,0) scale(1,-1)" x="0" y="0">Annotated features</text>
			</g>
			<g transform=" matrix(0.950775,0.309881,-0.309881,0.950775,602.410108,356.781702)">
				<text style="font-family: Helvetica; font-size: 8px; fill: rgb(60%,60%,60%);" transform="translate(0,0) scale(1,-1)" x="0" y="0">Annotated features</text>
			</g>
			<g transform=" matrix(0.589254,-0.807948,0.807948,0.589254,533.410029,143.432671)">
				<text style="font-family: Helvetica; font-size: 8px; fill: rgb(60%,60%,60%);" transform="translate(0,0) scale(1,-1)" x="0" y="0">Annotated features</text>
			</g>
			<g transform=" matrix(0.585579,0.810616,-0.810616,0.585579,309.181217,142.923501)">
				<text style="font-family: Helvetica; font-size: 8px; fill: rgb(60%,60%,60%);" transform="translate(0,0) scale(1,-1)" x="-67.6" y="0">Annotated features</text>
			</g>
			<g transform=" matrix(0.952173,-0.305560,0.305560,0.952173,239.212926,355.956968)">
				<text style="font-family: Helvetica; font-size: 8px; fill: rgb(60%,60%,60%);" transform="translate(0,0) scale(1,-1)" x="-67.6" y="0">Annotated features</text>
			</g>
			<g transform=" matrix(0.004541,-0.999990,0.999990,0.004541,420.078090,488.496063)">
				<text style="font-family: Helvetica; font-size: 8px; fill: rgb(60%,60%,60%);" transform="translate(0,0) scale(1,-1)" x="-67.6" y="0">Annotated features</text>
			</g>
			<g transform=" matrix(0.000000,1.000000,-1.000000,0.000000,420.944882,542.072835)">
				<text style="font-family: Helvetica; font-size: 8px; fill: rgb(60%,60%,60%);" transform="translate(0,0) scale(1,-1)" x="0" y="0">Graph content</text>
			</g>
			<g transform=" matrix(0.950775,0.309881,-0.309881,0.950775,653.347715,373.383500)">
				<text style="font-family: Helvetica; font-size: 8px; fill: rgb(60%,60%,60%);" transform="translate(0,0) scale(1,-1)" x="0" y="0">Graph content</text>
			</g>
			<g transform=" matrix(0.589254,-0.807948,0.807948,0.589254,564.979194,100.147022)">
				<text style="font-family: Helvetica; font-size: 8px; fill: rgb(60%,60%,60%);" transform="translate(0,0) scale(1,-1)" x="0" y="0">Graph content</text>
			</g>
			<g transform=" matrix(0.585579,0.810616,-0.810616,0.585579,277.808960,99.494927)">
				<text style="font-family: Helvetica; font-size: 8px; fill: rgb(60%,60%,60%);" transform="translate(0,0) scale(1,-1)" x="-50.696" y="0">Graph content</text>
			</g>
			<g transform=" matrix(0.952173,-0.305560,0.305560,0.952173,188.200447,372.327261)">
				<text style="font-family: Helvetica; font-size: 8px; fill: rgb(60%,60%,60%);" transform="translate(0,0) scale(1,-1)" x="-50.696" y="0">Graph content</text>
			</g>
			<g transform=" matrix(0.004541,-0.999990,0.999990,0.004541,419.834780,542.070314)">
				<text style="font-family: Helvetica; font-size: 8px; fill: rgb(60%,60%,60%);" transform="translate(0,0) scale(1,-1)" x="-50.696" y="0">Graph content</text>
			</g>
		</g>
	</g>
</svg>
